<?xml version="1.0" encoding="utf-8"?>
<!-- Generator: Adobe Illustrator 23.0.1, SVG Export Plug-In . SVG Version: 6.00 Build 0)  -->
<svg version="1.1" id="Layer_1" xmlns="http://www.w3.org/2000/svg" xmlns:xlink="http://www.w3.org/1999/xlink" x="0px" y="0px"
	 viewBox="0 0 512 512" style="enable-background:new 0 0 512 512;" xml:space="preserve">
<style type="text/css">
	.st0{fill-rule:evenodd;clip-rule:evenodd;fill:#1B1B1B;}
</style>
<path class="st0" d="M124.3,437.5c-18.2,0-35-6.9-47.7-19.7c-14.3-14.4-21.3-31.4-20.5-49.4c0.9-19.1,10.5-37.9,28.3-55.9
	l208.1-209.7c18.1-18.2,42.2-28.3,67.7-28.3c25.6,0,49.6,10,67.7,28.3c37.4,37.7,37.4,98.9,0,136.6L246.5,422.3
	c-2.6,2.6-6.8,2.6-9.4,0c-2.6-2.6-2.6-6.9,0-9.5l181.5-182.9c15.6-15.7,24.2-36.6,24.2-58.8c0-22.2-8.6-43.1-24.2-58.8
	c-32.2-32.4-84.5-32.4-116.6,0L93.8,322.1c-15.2,15.4-23.7,31.6-24.4,47c-0.7,14.1,5.1,27.6,16.6,39.2c11,11.1,25.8,16.6,42,15.6
	c16.7-1,33.3-9,46.6-22.5l167.2-168.7c11.6-11.7,11.6-30.6,0-42.3c-11.6-11.6-30.4-11.6-41.9,0L160.7,330.7c-2.6,2.6-6.8,2.6-9.4,0
	c-2.6-2.6-2.6-6.9,0-9.5L290.5,181c16.8-16.9,44-16.9,60.8,0c16.8,16.9,16.8,44.4,0,61.3L184,410.9c-15.7,15.8-35.3,25.2-55.3,26.4
	C127.2,437.4,125.7,437.5,124.3,437.5z"/>
</svg>
